<svg width="831" height="215" viewBox="0 0 831 215" fill="none" xmlns="http://www.w3.org/2000/svg">
<path d="M102.481 214.471C100.221 214.205 96.9422 213.704 95.1956 213.359C93.4489 213.014 91.3473 212.581 90.5254 212.397C89.7034 212.214 88.1903 211.837 87.1628 211.56C86.1354 211.283 83.8657 210.572 82.119 209.98C80.3724 209.388 78.3159 208.671 77.5492 208.386C76.7824 208.101 76.0399 207.749 75.8991 207.603C75.7582 207.458 75.4311 207.339 75.1721 207.339C74.9132 207.339 73.386 206.717 71.7785 205.958C70.1709 205.198 67.3888 203.806 65.5959 202.864C63.803 201.923 60.6927 200.086 58.684 198.784C56.6753 197.481 53.5108 195.253 51.6517 193.833C49.7927 192.414 47.0186 190.144 45.4871 188.79C43.9556 187.436 42.0531 185.717 41.2594 184.97C40.4656 184.222 39.3323 182.743 38.741 181.682C37.8665 180.113 37.6651 179.294 37.6622 177.297C37.6596 175.363 37.87 174.44 38.653 172.955C39.1999 171.917 40.1666 170.663 40.8013 170.168C41.436 169.673 42.7519 168.956 43.7256 168.575C44.8869 168.122 46.0641 167.95 47.1477 168.076C48.0562 168.182 49.5293 168.643 50.4212 169.1C51.3132 169.558 53.1312 170.987 54.4613 172.276C55.7914 173.565 58.1451 175.674 59.6919 176.963C61.2386 178.251 64.3536 180.556 66.614 182.083C68.8743 183.611 71.9006 185.487 73.339 186.253C74.7775 187.018 77.4354 188.343 79.2456 189.197C81.0558 190.05 82.7455 190.748 83.0005 190.748C83.2554 190.748 83.6238 190.897 83.819 191.078C84.0142 191.26 85.603 191.857 87.3496 192.407C89.0963 192.956 91.6182 193.686 92.9539 194.029C94.2896 194.372 95.9708 194.805 96.69 194.99C97.4092 195.175 99.9312 195.627 102.294 195.994C105.447 196.484 108.928 196.66 115.371 196.656C121.84 196.652 125.134 196.48 127.887 196.002C129.942 195.646 132.464 195.158 133.491 194.919C134.519 194.679 136.536 194.149 137.975 193.741C139.413 193.332 141.094 192.856 141.711 192.682C142.327 192.508 144.043 191.917 145.523 191.368C147.004 190.819 149.358 189.832 150.754 189.175C152.15 188.518 153.881 187.7 154.601 187.358C155.32 187.016 156.749 186.228 157.776 185.607C158.804 184.986 160.653 183.858 161.886 183.101C163.119 182.344 165.305 180.854 166.743 179.791C168.181 178.727 170.787 176.613 172.534 175.093C174.281 173.573 177.146 170.787 178.901 168.903C180.656 167.019 183.161 164.088 184.468 162.39C185.774 160.693 187.888 157.654 189.165 155.639C190.442 153.623 192.281 150.411 193.253 148.501C194.225 146.591 195.69 143.379 196.509 141.363C197.327 139.347 198.238 136.917 198.532 135.962C198.827 135.007 199.302 133.444 199.588 132.489C199.875 131.534 200.283 129.972 200.495 129.017C200.707 128.062 201.138 126.065 201.453 124.58C201.767 123.094 202.192 120.67 202.398 119.193C202.681 117.154 202.661 116.434 202.317 116.208C202.067 116.045 196.952 115.908 190.949 115.905L180.035 115.899L179.46 117.898C179.144 118.998 178.886 120.272 178.886 120.731C178.886 121.19 178.213 123.705 177.39 126.32C176.567 128.935 174.961 132.999 173.82 135.351C172.679 137.703 171.544 139.983 171.299 140.419C171.054 140.854 169.707 142.878 168.307 144.916C166.907 146.954 164.217 150.246 162.329 152.231C160.441 154.216 157.468 156.98 155.721 158.373C153.975 159.766 151.285 161.708 149.743 162.688C148.202 163.669 145.344 165.24 143.392 166.181C141.44 167.121 138.582 168.322 137.041 168.849C135.499 169.377 133.314 170.081 132.184 170.413C131.053 170.746 129.288 171.195 128.261 171.413C127.233 171.63 124.795 172.015 122.843 172.268C120.891 172.521 117.276 172.725 114.81 172.721C112.345 172.717 108.982 172.511 107.338 172.263C105.694 172.015 103.424 171.625 102.294 171.398C101.164 171.17 99.3988 170.738 98.3713 170.438C97.3439 170.138 95.9148 169.713 95.1956 169.494C94.4764 169.275 93.2154 168.822 92.3935 168.488C91.5715 168.153 90.3105 167.624 89.5913 167.31C88.8721 166.997 86.9636 166.055 85.3501 165.217C83.7367 164.38 81.0466 162.78 79.3723 161.661C77.6979 160.543 74.6797 158.194 72.6651 156.441C70.6505 154.688 67.7083 151.691 66.1268 149.78C64.5453 147.869 62.2699 144.808 61.0704 142.978C59.8708 141.148 58.2364 138.343 57.4383 136.745C56.6402 135.147 55.6296 132.972 55.1926 131.911C54.7555 130.85 53.9993 128.734 53.5121 127.209C53.0249 125.683 52.2981 122.906 51.8971 121.035C51.4961 119.165 50.9865 116.487 50.7648 115.083C50.5431 113.679 50.3617 109.793 50.3617 106.446C50.3617 103.1 50.5446 99.2135 50.7681 97.8097C50.9917 96.406 51.4284 94.0421 51.7386 92.5567C52.0488 91.0713 52.9816 87.7795 53.8114 85.2417C54.6412 82.7039 56.1632 78.971 57.1935 76.9465C58.2239 74.922 60.057 71.743 61.2671 69.882C62.4773 68.0211 64.4766 65.2875 65.7102 63.8074C66.9438 62.3273 69.5785 59.6219 71.5651 57.7954C73.5517 55.9689 76.9275 53.2806 79.0669 51.8215C81.2062 50.3624 84.6696 48.3068 86.7633 47.2535C88.857 46.2002 92.1389 44.8001 94.0564 44.1423C95.9738 43.4844 98.906 42.6257 100.572 42.2339C102.239 41.8421 105.283 41.3078 107.338 41.0465C109.393 40.7852 113.179 40.5798 115.751 40.59C118.324 40.6002 122.275 40.8766 124.531 41.2041C126.788 41.5317 130.063 42.1646 131.81 42.6106C133.557 43.0566 135.515 43.6691 136.163 43.9717C136.811 44.2743 137.599 44.5218 137.916 44.5218C138.232 44.5218 138.595 44.6954 138.722 44.9076C138.849 45.1198 139.245 45.2935 139.602 45.2935C139.958 45.2935 142.344 46.3892 144.904 47.7283C147.463 49.0675 150.734 50.9958 152.172 52.0134C153.61 53.031 156.249 55.1427 158.035 56.7062C159.879 58.3198 161.725 60.328 162.305 61.3508C162.955 62.4961 163.389 63.9095 163.495 65.229C163.605 66.6066 163.452 67.8716 163.039 68.9881C162.697 69.9137 161.834 71.2904 161.122 72.0475C160.41 72.8046 159.198 73.7356 158.428 74.1164C157.472 74.5897 156.201 74.8011 154.414 74.7844C152.774 74.7691 151.38 74.5297 150.678 74.1429C150.061 73.8034 148.464 72.5414 147.128 71.3383C145.793 70.1353 143.607 68.3579 142.271 67.3886C140.936 66.4193 138.225 64.7842 136.248 63.755C134.272 62.7258 132.414 61.8838 132.12 61.8838C131.826 61.8838 131.426 61.7395 131.231 61.5632C131.036 61.3869 129.867 60.9599 128.634 60.6143C127.401 60.2687 125.468 59.7703 124.338 59.5067C123.105 59.2193 119.516 59.0265 115.371 59.0249C110.277 59.023 107.722 59.1918 105.657 59.6664C104.116 60.0205 102.266 60.505 101.547 60.743C100.828 60.981 99.9031 61.3172 99.4921 61.49C99.0812 61.6628 97.8202 62.186 96.69 62.6527C95.5598 63.1194 93.8786 63.9413 92.9539 64.4792C92.0292 65.017 90.3518 66.0775 89.2264 66.8358C88.1009 67.594 86.84 68.4819 86.4242 68.8089C86.0085 69.1359 84.0596 71.0537 82.0933 73.0707C80.127 75.0877 77.7964 77.7552 76.9143 78.9984C76.0321 80.2417 74.5138 82.846 73.5402 84.7857C72.5667 86.7255 71.4035 89.4137 70.9553 90.7596C70.5072 92.1054 69.7894 94.7097 69.3604 96.5469C68.7328 99.2342 68.5765 101.17 68.5608 106.446C68.5488 110.444 68.7262 113.834 69.015 115.127C69.2755 116.294 69.9889 118.868 70.6003 120.847C71.2116 122.826 72.4718 126.001 73.4006 127.903C74.3294 129.805 76.0744 132.733 77.2784 134.41C78.4823 136.087 80.7522 138.773 82.3226 140.379C83.8929 141.985 86.8013 144.414 88.7856 145.777C90.7699 147.14 93.4256 148.783 94.687 149.428C95.9485 150.074 98.8066 151.199 101.038 151.929C103.27 152.659 106.357 153.488 107.899 153.772C109.44 154.056 112.802 154.288 115.371 154.288C117.939 154.288 121.302 154.047 122.843 153.753C124.384 153.458 126.738 152.913 128.074 152.541C129.409 152.169 131.427 151.486 132.557 151.023C133.687 150.56 135.789 149.565 137.227 148.812C138.666 148.06 141.188 146.435 142.832 145.202C144.476 143.969 146.848 141.95 148.104 140.715C149.36 139.48 151.163 137.47 152.11 136.249C153.058 135.028 154.431 133.063 155.161 131.884C155.892 130.704 156.92 128.839 157.447 127.738C157.973 126.638 158.819 124.609 159.327 123.23C159.836 121.85 160.495 119.796 160.792 118.665C161.089 117.533 161.237 116.448 161.12 116.253C160.997 116.048 154.756 115.899 146.266 115.899L131.623 115.899L129.431 118.431C128.225 119.823 126.544 121.415 125.695 121.969C124.846 122.523 123.142 123.392 121.909 123.901C120.071 124.659 118.961 124.831 115.744 124.858C112.28 124.888 111.516 124.765 109.206 123.814C107.768 123.222 105.795 122.14 104.821 121.411C103.848 120.682 102.449 119.36 101.712 118.474C100.975 117.588 99.7533 115.561 98.9978 113.97C97.6472 111.125 97.6241 110.998 97.6241 106.446C97.6241 101.864 97.6388 101.785 99.0522 98.7983C100.007 96.7807 101.205 95.0315 102.668 93.5212C104.127 92.0149 105.767 90.8151 107.591 89.9206C109.105 89.1784 111.525 88.3767 113.008 88.1264C115.211 87.7546 116.222 87.7776 118.676 88.2555C120.318 88.5755 122.643 89.3243 123.841 89.9196C125.302 90.6457 127.024 92.051 129.073 94.1891L132.127 97.3763L176.522 97.4743L220.917 97.5723L221.042 103.938C221.11 107.44 220.967 112.822 220.724 115.899C220.48 118.976 220.042 122.969 219.749 124.773C219.456 126.577 219.063 128.747 218.875 129.596C218.687 130.444 218.251 132.354 217.905 133.84C217.559 135.325 216.866 137.843 216.365 139.434C215.864 141.026 215.025 143.543 214.502 145.028C213.978 146.514 213.214 148.51 212.803 149.465C212.393 150.42 211.3 152.814 210.374 154.785C209.448 156.755 207.76 159.967 206.622 161.922C205.484 163.877 203.375 167.196 201.937 169.297C200.498 171.398 198.312 174.35 197.08 175.856C195.848 177.363 193.31 180.216 191.44 182.197C189.569 184.179 186.61 187.049 184.863 188.576C183.117 190.102 180.595 192.223 179.259 193.288C177.923 194.352 175.906 195.837 174.776 196.587C173.646 197.337 171.46 198.739 169.919 199.702C168.378 200.665 165.435 202.324 163.38 203.388C161.326 204.452 158.804 205.712 157.776 206.188C156.749 206.664 154.815 207.484 153.48 208.008C152.144 208.533 149.79 209.395 148.249 209.924C146.708 210.452 144.858 211.021 144.139 211.188C143.42 211.355 141.823 211.78 140.59 212.131C139.357 212.483 136.919 213.035 135.172 213.358C133.426 213.681 129.895 214.192 127.327 214.493C124.55 214.818 119.399 215.023 114.624 214.998C110.206 214.975 104.741 214.738 102.481 214.471ZM273.451 182.988C271.521 182.57 268.651 181.714 267.075 181.086C265.498 180.458 263.042 179.224 261.617 178.343C260.192 177.462 257.952 175.866 256.64 174.796C255.328 173.726 253.167 171.538 251.839 169.935C250.51 168.332 248.538 165.458 247.456 163.548C246.373 161.638 245.058 158.947 244.534 157.568C244.009 156.188 243.188 153.41 242.71 151.395C241.959 148.23 241.842 146.781 241.854 140.784C241.866 134.442 241.955 133.51 242.884 130.033C243.443 127.939 244.47 124.868 245.167 123.208C245.863 121.548 247.351 118.747 248.472 116.983C249.593 115.22 251.545 112.621 252.809 111.207C254.073 109.794 256.241 107.77 257.627 106.71C259.013 105.649 261.427 104.068 262.991 103.197C264.556 102.326 267.06 101.184 268.556 100.658C270.052 100.133 272.539 99.4334 274.082 99.1041C275.738 98.7509 278.819 98.5031 281.595 98.4999C284.183 98.4968 287.561 98.6881 289.102 98.925C290.643 99.1618 292.997 99.7166 294.333 100.158C295.669 100.599 297.77 101.481 299.003 102.117C300.236 102.754 302.432 104.101 303.883 105.112C305.334 106.123 307.057 107.581 307.713 108.351C308.704 109.518 308.904 110.068 308.904 111.639C308.904 113.094 308.688 113.79 307.958 114.686C307.437 115.325 306.417 116.05 305.692 116.297C304.966 116.545 303.82 116.64 303.145 116.509C302.471 116.379 300.675 115.294 299.153 114.099C297.632 112.904 295.184 111.332 293.713 110.607C292.242 109.881 289.721 109.045 288.109 108.749C286.498 108.452 283.785 108.203 282.081 108.196C280.377 108.189 277.706 108.455 276.145 108.788C274.584 109.121 272.448 109.739 271.397 110.162C270.347 110.585 268.311 111.654 266.872 112.538C265.412 113.435 262.853 115.597 261.079 117.433C258.683 119.914 257.425 121.622 255.962 124.387C254.895 126.403 253.568 129.615 253.013 131.525C252.12 134.601 252.002 135.658 251.979 140.784C251.961 145.056 252.123 147.264 252.598 149.217C252.953 150.671 253.767 153.102 254.409 154.618C255.05 156.134 256.332 158.59 257.257 160.076C258.182 161.561 260.052 163.905 261.412 165.284C262.772 166.663 265.072 168.53 266.523 169.432C267.973 170.334 270.511 171.581 272.161 172.203C273.825 172.83 276.584 173.496 278.352 173.696C280.125 173.898 282.93 173.922 284.668 173.752C286.388 173.584 288.887 173.084 290.223 172.642C291.559 172.2 293.913 171.177 295.454 170.37L298.256 168.902L298.356 159.211L298.455 149.52L290.51 149.396C283.335 149.285 282.437 149.197 281.256 148.49C280.537 148.06 279.639 147.059 279.261 146.266C278.648 144.979 278.628 144.648 279.074 143.201C279.408 142.119 279.998 141.286 280.845 140.7C282.098 139.831 282.263 139.82 293.623 139.82C301.625 139.82 305.425 139.958 306.093 140.272C306.622 140.521 307.428 141.345 307.886 142.105C308.706 143.467 308.717 143.674 308.717 157.761C308.717 171.409 308.684 172.095 307.959 173.368C307.542 174.101 306.029 175.528 304.597 176.539C303.164 177.55 301.067 178.88 299.937 179.493C298.807 180.107 296.545 181.073 294.91 181.639C293.275 182.206 290.521 182.925 288.79 183.237C287.058 183.548 283.688 183.791 281.301 183.776C278.513 183.759 275.704 183.477 273.451 182.988ZM781.902 183.195C780.361 182.907 777.673 182.213 775.93 181.653C774.186 181.094 771.664 180.061 770.326 179.359C768.987 178.656 766.81 177.298 765.487 176.341C764.166 175.384 761.923 173.416 760.504 171.968C759.086 170.52 757.015 167.927 755.903 166.206C754.791 164.485 753.395 161.967 752.802 160.611C752.209 159.256 751.296 156.744 750.774 155.031C750.252 153.318 749.625 150.453 749.381 148.665C749.138 146.877 748.948 143.244 748.959 140.591C748.97 137.939 749.246 134.206 749.572 132.296C749.897 130.387 750.519 127.695 750.953 126.316C751.387 124.937 752.31 122.613 753.003 121.153C753.696 119.692 755.057 117.262 756.028 115.751C756.999 114.241 758.972 111.769 760.414 110.258C761.855 108.746 764.492 106.531 766.273 105.335C768.054 104.138 770.702 102.636 772.158 101.996C773.614 101.356 776.37 100.403 778.282 99.8773C780.216 99.3458 783.573 98.7934 785.847 98.6328C788.095 98.4739 791.758 98.4697 793.987 98.6232C796.31 98.7833 799.58 99.3253 801.646 99.893C803.63 100.438 806.523 101.45 808.075 102.143C809.627 102.836 812.149 104.261 813.679 105.31C815.209 106.359 817.819 108.607 819.478 110.304C821.138 112.002 823.444 114.877 824.603 116.693C825.761 118.509 827.308 121.596 828.04 123.552C828.771 125.509 829.738 128.624 830.188 130.475C830.886 133.341 831.006 134.897 831 140.977C830.994 146.964 830.861 148.688 830.175 151.666C829.725 153.619 828.839 156.571 828.206 158.225C827.573 159.879 826.308 162.556 825.395 164.172C824.481 165.789 822.66 168.411 821.347 170C820.035 171.588 817.642 173.913 816.03 175.167C814.418 176.421 811.754 178.164 810.11 179.042C808.466 179.92 805.755 181.08 804.085 181.621C802.415 182.161 799.557 182.873 797.733 183.202C795.754 183.56 792.46 183.785 789.561 183.761C786.889 183.738 783.443 183.484 781.902 183.195ZM798.154 173.03C799.592 172.615 802.03 171.682 803.571 170.955C805.113 170.228 807.214 168.981 808.242 168.185C809.269 167.388 810.842 166.019 811.737 165.142C812.632 164.265 814.022 162.639 814.827 161.529C815.631 160.418 816.853 158.335 817.542 156.899C818.231 155.463 819.065 153.42 819.394 152.359C819.723 151.298 820.269 148.781 820.606 146.765C821.045 144.136 821.154 142.008 820.99 139.241C820.865 137.119 820.418 133.907 819.998 132.103C819.577 130.3 818.568 127.402 817.754 125.664C816.94 123.926 815.273 121.218 814.048 119.645C812.823 118.073 810.69 115.885 809.307 114.782C807.924 113.68 805.572 112.18 804.081 111.449C802.589 110.718 800.057 109.73 798.454 109.253C795.981 108.518 794.688 108.391 789.934 108.417C785.478 108.441 783.746 108.612 781.474 109.253C779.904 109.696 777.55 110.612 776.244 111.288C774.938 111.964 772.848 113.265 771.601 114.178C770.354 115.092 768.383 116.899 767.222 118.194C766.061 119.489 764.426 121.76 763.588 123.241C762.751 124.721 761.662 127.039 761.17 128.391C760.677 129.743 759.993 132.39 759.649 134.274C759.179 136.857 759.075 138.929 759.227 142.714C759.357 145.963 759.695 148.744 760.188 150.612C760.605 152.197 761.57 154.801 762.331 156.399C763.092 157.997 764.148 159.912 764.676 160.654C765.205 161.397 766.305 162.839 767.121 163.859C767.937 164.879 769.705 166.552 771.05 167.576C772.395 168.6 774.691 170.056 776.153 170.812C777.615 171.567 780.137 172.531 781.757 172.953C783.378 173.375 785.208 173.805 785.825 173.908C786.441 174.012 788.879 174.026 791.242 173.94C793.924 173.842 796.522 173.5 798.154 173.03ZM328.114 181.34L326.651 180.034L326.539 141.697C326.436 106.256 326.475 103.265 327.061 102.113C327.448 101.351 328.33 100.548 329.325 100.051C330.905 99.261 331.323 99.2413 342.814 99.4156C352.213 99.5581 355.253 99.733 357.474 100.259C359.015 100.624 361.201 101.372 362.331 101.922C363.461 102.472 365.239 103.484 366.282 104.17C367.325 104.857 369.006 106.311 370.018 107.401C371.03 108.49 372.401 110.269 373.063 111.354C373.726 112.438 374.693 114.472 375.211 115.873C375.73 117.275 376.335 119.894 376.555 121.693C376.776 123.493 376.842 126.355 376.703 128.052C376.564 129.75 376.055 132.319 375.572 133.76C375.089 135.202 374.097 137.397 373.367 138.638C372.637 139.878 370.967 141.931 369.654 143.198C368.342 144.466 366.326 146.06 365.173 146.741C364.021 147.422 363.078 148.05 363.078 148.136C363.078 148.223 366.697 154.287 371.12 161.612C375.544 168.937 379.326 175.376 379.527 175.92C379.727 176.464 379.891 177.435 379.891 178.078C379.891 178.721 379.616 179.728 379.28 180.316C378.944 180.903 378.203 181.668 377.634 182.015C377.058 182.367 375.794 182.646 374.779 182.646C373.674 182.646 372.595 182.388 372.035 181.989C371.527 181.627 370.902 181.063 370.646 180.735C370.39 180.407 369.139 178.402 367.867 176.28C366.594 174.158 364.862 171.293 364.016 169.914C363.171 168.535 360.218 163.634 357.455 159.024L352.43 150.642L344.678 150.632L336.925 150.623L336.917 164.416C336.909 177.131 336.853 178.335 336.199 179.823C335.774 180.791 335.036 181.68 334.358 182.042C333.735 182.374 332.405 182.646 331.402 182.646C329.866 182.646 329.346 182.44 328.114 181.34ZM356.85 139.51C358.048 139.055 359.849 138.061 360.852 137.3C361.855 136.54 363.188 135.249 363.816 134.431C364.443 133.613 365.22 132.294 365.541 131.5C365.862 130.706 366.276 129.1 366.46 127.931C366.667 126.619 366.653 124.761 366.424 123.071C366.219 121.567 365.604 119.383 365.055 118.219C364.506 117.054 363.247 115.265 362.257 114.242C361.248 113.2 359.404 111.874 358.064 111.227C356.749 110.591 354.607 109.901 353.304 109.693C352.002 109.486 347.825 109.365 344.024 109.424L337.112 109.533L337.014 125.098L336.917 140.663L345.794 140.5C353.708 140.355 354.908 140.248 356.85 139.51ZM385.844 181.772C385.122 181.27 384.355 180.267 384.042 179.416C383.612 178.25 383.58 177.554 383.891 176.143C384.108 175.157 385.328 171.833 386.601 168.757C387.874 165.68 389.724 161.165 390.711 158.725C391.699 156.285 393.605 151.597 394.947 148.308C396.29 145.019 398.306 140.071 399.428 137.312C400.55 134.553 403.162 128.129 405.231 123.037C407.301 117.944 410.081 111.117 411.409 107.865C412.737 104.613 414.111 101.625 414.463 101.223C414.815 100.822 415.813 100.213 416.682 99.8707C417.945 99.3726 418.559 99.3303 419.743 99.6596C420.558 99.8862 421.578 100.464 422.011 100.944C422.443 101.424 423.651 103.846 424.694 106.326C425.738 108.806 427.159 112.279 427.852 114.042C428.546 115.806 431.833 123.934 435.157 132.103C438.481 140.273 441.683 148.086 442.273 149.465C442.864 150.845 444.108 153.883 445.038 156.217C445.969 158.552 447.338 161.937 448.081 163.741C448.825 165.545 450.262 169.083 451.276 171.604C452.29 174.125 453.12 176.782 453.12 177.507C453.12 178.233 452.871 179.323 452.567 179.93C452.263 180.538 451.567 181.397 451.022 181.84C450.352 182.384 449.488 182.646 448.362 182.646C447.445 182.646 446.165 182.38 445.517 182.055C444.869 181.729 444.075 181.078 443.752 180.608C443.429 180.137 442.223 177.322 441.073 174.351C439.922 171.38 438.549 167.949 438.021 166.727L437.061 164.505L418.287 164.605L399.513 164.705L398.091 168.371C397.308 170.387 396.16 173.251 395.539 174.737C394.918 176.222 394.074 178.223 393.664 179.184C393.251 180.15 392.377 181.313 391.706 181.788C390.89 182.365 389.937 182.646 388.796 182.646C387.652 182.646 386.691 182.361 385.844 181.772ZM433.318 154.94C433.318 154.768 432.918 153.596 432.429 152.336C431.94 151.075 429.227 144.141 426.4 136.926C423.573 129.711 420.736 122.452 420.096 120.794C419.457 119.136 418.766 117.781 418.56 117.783C418.355 117.785 416.961 120.878 415.464 124.656C413.967 128.434 411.637 134.303 410.287 137.698C408.936 141.093 407.112 145.694 406.232 147.922C405.352 150.15 404.361 152.619 404.03 153.408C403.7 154.197 403.429 154.935 403.429 155.047C403.429 155.16 410.154 155.253 418.373 155.253C426.593 155.253 433.318 155.112 433.318 154.94ZM481.753 181.484C480.888 180.7 479.955 179.097 478.888 176.564C478.018 174.498 476.843 171.766 476.277 170.493C475.712 169.219 474.376 166.094 473.308 163.548C472.24 161.001 471.141 158.397 470.867 157.761C470.592 157.124 469.444 154.433 468.314 151.78C467.185 149.128 464.379 142.53 462.079 137.119C459.779 131.708 456.671 124.416 455.173 120.915C453.675 117.413 451.669 112.659 450.716 110.35C449.762 108.041 448.895 105.437 448.789 104.563C448.644 103.372 448.789 102.654 449.371 101.697C449.798 100.994 450.753 100.158 451.494 99.8384C452.373 99.4593 453.34 99.3444 454.277 99.5078C455.067 99.6456 456.16 100.121 456.705 100.564C457.251 101.008 458.349 102.813 459.145 104.575C459.941 106.338 460.592 107.882 460.592 108.006C460.592 108.13 461.773 111.129 463.217 114.67C464.661 118.21 466.166 121.889 466.562 122.844C466.958 123.799 468.618 127.879 470.251 131.91C471.884 135.942 473.88 140.891 474.688 142.906C475.496 144.922 477.993 151.127 480.237 156.694C482.481 162.261 484.515 166.818 484.758 166.821C485.001 166.825 485.319 166.437 485.465 165.959C485.61 165.482 488.916 157.365 492.812 147.922C496.707 138.479 500.476 129.364 501.187 127.666C501.899 125.969 502.802 123.799 503.195 122.844C503.587 121.889 505.188 117.982 506.752 114.163C508.316 110.343 509.918 106.512 510.313 105.649C510.707 104.786 511.03 103.901 511.03 103.682C511.03 103.462 511.53 102.57 512.14 101.7C512.916 100.594 513.703 99.9778 514.755 99.6521C515.9 99.298 516.602 99.2919 517.684 99.6268C518.467 99.869 519.518 100.518 520.019 101.069C520.721 101.841 520.929 102.486 520.922 103.873C520.915 105.249 520.307 107.088 518.348 111.655C516.938 114.944 514.87 119.805 513.754 122.458C512.638 125.11 511.478 127.841 511.177 128.525C510.876 129.21 509.145 133.29 507.331 137.592C505.516 141.894 502.596 148.817 500.841 152.977C499.085 157.136 497.291 161.351 496.854 162.343C496.416 163.335 495.125 166.356 493.985 169.056C492.845 171.756 491.323 175.393 490.603 177.139C489.753 179.199 488.842 180.721 488.006 181.479C486.946 182.44 486.394 182.646 484.877 182.646C483.361 182.646 482.808 182.44 481.753 181.484ZM536.004 181.697C535.26 181.175 534.465 180.194 534.236 179.517C533.942 178.647 533.821 167.335 533.821 140.901C533.821 108.592 533.896 103.364 534.376 102.406C534.681 101.797 535.423 100.936 536.025 100.493C536.628 100.05 537.642 99.5803 538.28 99.4486C539.001 99.2996 540.083 99.4633 541.145 99.882C542.243 100.315 543.105 100.986 543.565 101.764C544.255 102.934 544.279 104.245 544.281 141.312V179.65L542.83 181.148C541.504 182.517 541.207 182.646 539.367 182.646C537.846 182.646 537.026 182.415 536.003 181.697H536.004ZM586.612 181.89C585.954 181.476 585.156 180.617 584.837 179.982C584.328 178.964 584.259 174.755 584.259 144.693C584.259 125.92 584.157 110.286 584.032 109.95C583.832 109.411 582.397 109.34 571.731 109.34C559.658 109.34 559.658 109.34 558.515 108.347C557.886 107.801 557.174 106.672 556.933 105.839C556.595 104.676 556.596 103.97 556.936 102.8C557.212 101.85 557.832 100.943 558.583 100.389C559.787 99.5014 559.787 99.5014 588.929 99.4006C616.134 99.3065 618.156 99.3449 619.352 99.9793C620.057 100.353 620.962 101.123 621.365 101.689C621.792 102.292 622.096 103.339 622.096 104.211C622.096 105.031 621.819 106.255 621.481 106.931C621.142 107.607 620.489 108.382 620.029 108.653C619.416 109.015 615.935 109.199 607.049 109.34L594.907 109.533L594.72 144.45C594.571 172.301 594.434 179.546 594.042 180.255C593.773 180.744 593.016 181.481 592.361 181.894C591.648 182.343 590.497 182.643 589.49 182.643C588.48 182.643 587.331 182.342 586.612 181.89ZM636.084 181.131L634.51 179.615L634.399 142.066C634.323 116.308 634.413 104.072 634.686 103.099C634.905 102.319 635.58 101.25 636.185 100.724C636.791 100.197 637.953 99.6503 638.769 99.5081C639.859 99.3179 640.696 99.4526 641.931 100.017C642.991 100.501 643.827 101.216 644.198 101.956C644.72 102.998 644.785 107.328 644.785 140.977C644.785 173.639 644.709 178.978 644.232 179.93C643.928 180.538 643.232 181.397 642.687 181.84C641.959 182.432 641.158 182.646 639.676 182.646C637.843 182.646 637.512 182.507 636.084 181.131ZM668.434 181.89C667.776 181.476 666.978 180.617 666.659 179.982C666.149 178.962 666.081 174.412 666.081 141.17C666.081 108.679 666.157 103.363 666.634 102.41C666.938 101.803 667.627 100.948 668.166 100.51C668.705 100.073 669.7 99.6073 670.377 99.4761C671.207 99.3153 672.139 99.4806 673.235 99.9828C674.667 100.639 675.848 102.082 683.138 112.075C687.691 118.316 694.401 127.502 698.05 132.489C701.699 137.476 708.201 146.374 712.499 152.263C716.797 158.151 720.466 162.969 720.652 162.969C720.849 162.969 721.031 150.384 721.089 132.707L721.189 102.446L722.292 101.257C722.899 100.603 724.069 99.8805 724.893 99.6515C725.961 99.3545 726.774 99.3538 727.728 99.6492C728.464 99.8768 729.564 100.599 730.171 101.254L731.277 102.446L731.389 140.135C731.464 165.265 731.372 178.281 731.115 179.197C730.903 179.952 730.307 180.98 729.791 181.48C729.121 182.13 728.285 182.438 726.857 182.56C725.479 182.678 724.501 182.539 723.699 182.111C722.96 181.716 720.47 178.652 716.847 173.677C713.716 169.379 707.602 161.002 703.259 155.06C698.917 149.118 691.934 139.569 687.742 133.84C683.551 128.11 679.46 122.511 678.651 121.397C677.843 120.283 677.038 119.371 676.862 119.371C676.686 119.371 676.542 132.659 676.542 148.899C676.542 173.725 676.456 178.639 676.004 179.757C675.708 180.488 674.91 181.436 674.229 181.865C673.473 182.341 672.34 182.643 671.311 182.643C670.302 182.643 669.153 182.342 668.434 181.89ZM12.0618 125.028C10.8266 124.553 9.04107 123.614 8.09394 122.942C7.14682 122.269 5.62764 120.863 4.718 119.818C3.80837 118.774 2.6237 117.042 2.08541 115.971C1.54713 114.899 0.819344 112.689 0.468115 111.059C0.0678348 109.201 -0.0886091 107.38 0.0489126 106.181C0.169583 105.129 0.468944 103.63 0.714156 102.849C0.959371 102.069 1.45485 100.728 1.81522 99.8701C2.17559 99.0119 3.15189 97.4194 3.98479 96.3313C4.81768 95.2432 6.57613 93.5593 7.89245 92.5893L10.2858 90.8257L10.9356 87.0613C11.293 84.9909 11.8012 82.5156 12.065 81.5607C12.3287 80.6058 12.8334 78.7828 13.1866 77.5096C13.5397 76.2364 14.0613 74.4546 14.3456 73.5501C14.6298 72.6456 15.3856 70.4753 16.0249 68.7273C16.6643 66.9793 18.1081 63.5763 19.2333 61.1651C20.3586 58.7539 21.9383 55.6691 22.7439 54.31C23.5494 52.9509 24.2085 51.7724 24.2085 51.6912C24.2085 51.6099 25.3257 49.8334 26.6911 47.7433C28.0564 45.6532 30.4523 42.3085 32.0151 40.3106C33.5779 38.3128 36.5379 34.9172 38.5927 32.7648C40.6476 30.6125 43.2536 27.9819 44.3838 26.9191C45.514 25.8563 48.4562 23.4357 50.9221 21.5399C53.3879 19.6441 55.7417 17.8779 56.1527 17.6149C56.5637 17.352 58.4131 16.1998 60.2625 15.0546C62.1119 13.9093 65.3063 12.1067 67.3612 11.0487C69.4161 9.99076 71.7699 8.8307 72.5918 8.47083C73.4138 8.11097 74.4225 7.67627 74.8335 7.50484C75.2445 7.33341 76.0659 6.99091 76.6588 6.74373C77.2518 6.49655 79.1852 5.80379 80.9554 5.20428C82.7256 4.60477 84.9305 3.89703 85.8552 3.63154C86.7799 3.36605 88.0408 2.9835 88.6573 2.78143C89.2738 2.57936 90.5347 2.27104 91.4594 2.09626C92.3841 1.92149 95.1582 1.37832 97.6241 0.889219C101.775 0.0658556 103.077 -5.01283e-05 115.184 2.85688e-08C126.132 4.2469e-05 128.808 0.110395 131.623 0.677831C133.473 1.05061 136.192 1.60457 137.667 1.90885C139.141 2.21314 141.327 2.73872 142.524 3.07682C143.72 3.41491 145.204 3.82651 145.821 3.99148C146.437 4.15645 148.202 4.73626 149.743 5.27995C151.285 5.82365 154.206 6.98508 156.235 7.86092C158.263 8.73676 161.71 10.3972 163.894 11.5507C166.077 12.7043 168.789 14.1992 169.919 14.8727C171.049 15.5462 173.319 17.0612 174.963 18.2393C176.606 19.4175 179.271 21.4132 180.885 22.6743C182.498 23.9353 185.031 26.1984 186.513 27.7032C188.45 29.6704 189.332 30.8856 189.651 32.0274C189.895 32.9008 190.094 34.2154 190.094 34.9487C190.094 35.6821 189.835 37.0672 189.518 38.0268C189.202 38.9864 188.261 40.4823 187.428 41.3512C186.569 42.247 185.172 43.1918 184.201 43.5334C183.259 43.8648 181.908 44.136 181.197 44.136C180.487 44.136 179.263 43.937 178.477 43.6937C177.691 43.4505 175.981 42.3653 174.678 41.2823C173.374 40.1993 171.113 38.3196 169.652 37.1052C168.19 35.8907 165.341 33.789 163.32 32.4346C161.298 31.0801 158.131 29.1751 156.282 28.2012C154.432 27.2273 151.743 25.8823 150.305 25.2124C148.867 24.5425 146.176 23.4902 144.327 22.874C142.477 22.2578 140.207 21.5111 139.282 21.2147C138.358 20.9183 136.844 20.4911 135.92 20.2653C134.995 20.0395 132.977 19.602 131.436 19.2929C129.895 18.9839 126.953 18.5251 124.898 18.2733C122.569 17.9879 118.207 17.8861 113.316 18.0029C109.001 18.1059 104.209 18.3833 102.668 18.6193C101.127 18.8553 99.0251 19.2414 97.9977 19.4771C96.9702 19.7129 94.1962 20.4282 91.833 21.0667C89.4699 21.7051 86.6117 22.5683 85.4816 22.9849C84.3514 23.4015 83.0904 23.8941 82.6794 24.0796C82.2685 24.2651 81.0916 24.7966 80.0641 25.2607C79.0367 25.7248 77.1042 26.6198 75.7698 27.2496C74.4354 27.8794 72.1657 29.1131 70.726 29.9912C69.2863 30.8692 66.7634 32.5291 65.1195 33.6797C63.4756 34.8303 60.4493 37.1999 58.3944 38.9454C56.3395 40.6909 53.2207 43.658 51.4637 45.5389C49.7066 47.4198 47.2387 50.2756 45.9794 51.885C44.7201 53.4944 42.4908 56.7064 41.0255 59.0227C39.5601 61.339 37.3424 65.4044 36.0972 68.057C34.852 70.7095 33.6051 73.4006 33.3262 74.0372C33.0473 74.6738 32.2374 77.0498 31.5263 79.3171C30.8153 81.5845 29.9704 84.536 29.6488 85.8761C29.3272 87.2162 28.9218 89.1162 28.7479 90.0984C28.4317 91.8841 28.4317 91.8841 30.9189 94.416C32.3912 95.9148 33.8278 97.8373 34.4395 99.1276C35.0079 100.326 35.7108 102.116 36.0014 103.105C36.292 104.094 36.5298 106.205 36.5298 107.797C36.5298 109.388 36.3001 111.472 36.0193 112.426C35.7385 113.381 35.1517 114.947 34.7151 115.906C34.2786 116.865 33.1564 118.553 32.2213 119.657C31.2862 120.761 29.5068 122.31 28.2671 123.1C27.0274 123.891 25.1512 124.851 24.0977 125.234C22.6967 125.743 21.125 125.925 18.245 125.91C15.1224 125.894 13.843 125.712 12.0618 125.028ZM350.858 76.147C349.789 75.9901 347.809 75.3282 346.46 74.6761C344.964 73.9534 343.222 72.6806 341.998 71.4166C340.893 70.276 339.527 68.4024 338.962 67.2531C338.396 66.1037 337.709 64.2952 337.434 63.2342C337.159 62.1732 336.932 59.991 336.93 58.385C336.926 56.7789 337.185 54.5609 337.503 53.456C337.821 52.351 338.649 50.4451 339.344 49.2205C340.039 47.9959 341.418 46.2111 342.409 45.2544C343.4 44.2976 345.153 43.0388 346.305 42.457C347.457 41.8751 349.533 41.2051 350.918 40.968C352.801 40.6459 354.147 40.651 356.247 40.988C357.792 41.236 359.759 41.7603 360.619 42.153C361.479 42.5458 362.804 43.431 363.564 44.1203C364.386 44.8653 364.946 45.724 364.946 46.2382C364.946 46.7138 364.639 47.3903 364.263 47.7415C363.887 48.0927 363.305 48.38 362.968 48.38C362.632 48.38 361.329 47.6941 360.073 46.8558C358.721 45.9534 357.099 45.2248 356.098 45.0698C355.168 44.9258 353.48 44.9067 352.348 45.0275C351.215 45.1482 349.365 45.7292 348.237 46.3186C347.109 46.908 345.508 48.1772 344.68 49.1391C343.851 50.1009 342.856 51.6171 342.468 52.5084C342.081 53.3997 341.585 55.1286 341.366 56.3504C341.074 57.9793 341.086 59.1905 341.41 60.8902C341.653 62.1653 342.262 64.0449 342.764 65.0672C343.265 66.0894 344.357 67.6293 345.189 68.489C346.022 69.3488 347.571 70.4697 348.633 70.9799C350.173 71.7206 351.18 71.9084 353.624 71.9114C356.47 71.9149 356.891 71.806 359.575 70.3719C361.163 69.5231 362.765 68.8286 363.135 68.8286C363.505 68.8286 364.069 69.2392 364.387 69.7411C364.805 70.3994 364.871 70.9098 364.624 71.5737C364.435 72.0798 363.8 72.8563 363.213 73.2992C362.625 73.7421 361.051 74.5457 359.716 75.0849C358.38 75.624 356.278 76.1478 355.045 76.2487C353.813 76.3496 351.928 76.3039 350.858 76.147ZM274.902 75.6436C274.345 75.3516 273.569 74.0483 272.681 71.9152L271.316 68.6357L263.49 68.534L255.664 68.4324L254.582 71.2348C253.988 72.7761 253.269 74.4278 252.986 74.9053C252.621 75.5207 252.114 75.7734 251.246 75.7734C250.573 75.7734 249.82 75.5651 249.574 75.3104C249.327 75.0558 249.125 74.3555 249.125 73.7542C249.125 73.1529 251.829 66.0258 255.133 57.9162C258.438 49.8066 261.375 42.794 261.662 42.3326C261.948 41.8712 262.531 41.3794 262.957 41.2396C263.411 41.091 264.092 41.2285 264.598 41.5706C265.163 41.9531 266.119 43.8019 267.359 46.9077C268.401 49.5212 271.198 56.4341 273.574 62.2696C275.949 68.1052 277.893 73.3359 277.893 73.8935C277.894 74.4511 277.684 75.0752 277.427 75.2804C277.17 75.4857 276.69 75.7524 276.359 75.8731C276.029 75.9938 275.374 75.8905 274.902 75.6436ZM269.169 64.2893C269.468 64.092 268.73 61.7895 266.741 56.7164C265.169 52.7072 263.729 49.4399 263.54 49.4557C263.352 49.4715 261.9 52.7518 260.314 56.7451C258.326 61.7499 257.562 64.0939 257.854 64.2893C258.088 64.4452 260.633 64.5727 263.51 64.5727C266.386 64.5727 268.933 64.4452 269.169 64.2893ZM411.275 75.6694C410.341 75.1721 410.341 75.1721 410.239 58.7859C410.138 42.4656 410.14 42.3971 410.934 41.7246C411.649 41.1188 412.761 41.0494 421.753 41.0494C427.265 41.0494 432.192 41.2131 432.701 41.4131C433.211 41.6132 433.74 42.1425 433.877 42.5895C434.028 43.0801 433.889 43.7768 433.527 44.3478C432.927 45.2935 432.927 45.2935 423.822 45.2935C415.864 45.2935 414.689 45.3703 414.49 45.9037C414.366 46.2394 414.264 48.6515 414.264 51.264C414.264 55.2394 414.36 56.0521 414.855 56.2481C415.18 56.3769 418.256 56.4823 421.692 56.4823C426.052 56.4823 428.073 56.6221 428.386 56.9453C428.633 57.1999 428.835 57.8597 428.835 58.4114C428.835 58.9631 428.633 59.6229 428.386 59.8775C428.073 60.2009 426.017 60.3423 421.568 60.3464C418.064 60.3495 414.982 60.4934 414.719 60.6658C414.361 60.9008 414.267 62.2738 414.346 66.1578L414.45 71.3364L423.728 71.5294C432.362 71.7089 433.042 71.7743 433.535 72.4712C433.827 72.8831 434.065 73.4281 434.065 73.6824C434.065 73.9366 433.744 74.5545 433.352 75.0555C432.638 75.9663 432.638 75.9663 422.423 76.0665C414.661 76.1426 411.984 76.0473 411.275 75.6694ZM283.778 75.3567C283.172 74.9919 283.124 73.7787 283.124 58.6324C283.124 43.9049 283.185 42.2494 283.743 41.7718C284.209 41.373 285.799 41.2423 290.188 41.2423C294.065 41.2423 296.615 41.4224 297.809 41.7805C298.897 42.1068 300.31 42.9753 301.401 43.9876C302.498 45.0065 303.522 46.4329 304.028 47.6495C304.485 48.7456 304.949 50.5433 305.059 51.6444C305.187 52.9293 305.041 54.4217 304.65 55.8104C304.315 57.0006 303.49 58.7237 302.816 59.6397C302.135 60.5669 300.687 61.8169 299.55 62.4599C297.624 63.5493 297.228 63.6224 292.558 63.7516L287.608 63.8886V68.9735C287.608 72.9513 287.481 74.2451 287.026 74.9159C286.665 75.4488 286.064 75.769 285.438 75.7617C284.885 75.7552 284.138 75.573 283.778 75.3567ZM296.239 59.1313C296.937 58.8907 298.058 58.1589 298.73 57.5051C299.408 56.845 300.132 55.626 300.356 54.7636C300.579 53.9096 300.66 52.4486 300.537 51.517C300.413 50.5854 299.967 49.2468 299.545 48.5423C299.124 47.8378 298.161 46.8671 297.405 46.3851C296.199 45.6149 295.533 45.5073 291.913 45.4975L287.795 45.4864L287.693 52.5276L287.591 59.5689H291.28C293.309 59.5689 295.54 59.372 296.239 59.1313ZM305.742 75.0173C305.265 74.4737 305.153 73.9588 305.341 73.1852C305.485 72.5934 307.123 68.3761 308.982 63.8135C310.841 59.2508 313.075 53.7815 313.947 51.6595C314.819 49.5375 316.079 46.4433 316.747 44.7836C317.625 42.605 318.21 41.6689 318.851 41.4172C319.377 41.2105 320.098 41.2097 320.622 41.4153C321.108 41.6059 321.596 41.9923 321.707 42.2738C321.818 42.5553 323.539 46.7789 325.532 51.6595C327.525 56.5402 329.54 61.4884 330.009 62.6555C330.479 63.8226 331.638 66.7323 332.586 69.1214C333.534 71.5106 334.31 73.6973 334.31 73.9808C334.31 74.2644 334.002 74.7837 333.627 75.1349C333.251 75.4861 332.52 75.7734 332.003 75.7734C331.486 75.7734 330.803 75.4696 330.485 75.0982C330.168 74.7269 329.368 73.0741 328.708 71.4254L327.509 68.4277L319.659 68.5317L311.809 68.6357L310.7 71.5294C310.089 73.1209 309.326 74.7269 309.002 75.0982C308.679 75.4696 307.962 75.7734 307.409 75.7734C306.857 75.7734 306.106 75.4332 305.742 75.0173ZM325.521 64.2141C325.643 64.0104 324.541 60.755 323.072 56.98C321.604 53.2049 320.256 49.9542 320.077 49.7561C319.898 49.5581 319.653 49.4978 319.532 49.6223C319.412 49.7467 318.803 51.1241 318.179 52.6831C317.556 54.2422 316.303 57.3948 315.395 59.6889C314.488 61.9831 313.843 64.0231 313.962 64.2224C314.081 64.4218 316.677 64.5846 319.739 64.5846C322.889 64.5846 325.395 64.424 325.521 64.2141ZM372.627 74.9159C372.124 74.1742 372.045 71.9572 372.045 58.5009C372.045 42.9435 372.045 42.9434 372.962 41.9964C373.466 41.4756 374.102 41.0494 374.373 41.0494C374.645 41.0494 375.241 41.3197 375.698 41.65C376.503 42.2325 376.528 42.4584 376.528 49.1323C376.528 55.0515 376.611 56.0467 377.119 56.2481C377.444 56.3769 381.718 56.4823 386.616 56.4823C391.514 56.4823 395.788 56.3769 396.113 56.2481C396.619 56.0473 396.704 55.082 396.704 49.4787C396.704 43.0107 396.713 42.9335 397.644 41.9725C398.336 41.2581 398.805 41.0713 399.419 41.2656C399.878 41.4108 400.463 41.7033 400.72 41.9155C401.08 42.2131 401.187 45.9903 401.187 58.4311C401.187 72.58 401.115 74.6353 400.6 75.1671C400.277 75.5006 399.53 75.7734 398.94 75.7734C398.255 75.7734 397.657 75.4635 397.285 74.9159C396.812 74.2178 396.704 72.7823 396.704 67.1932V60.3279L386.709 60.4307L376.715 60.5334L376.613 67.6424C376.549 72.0885 376.357 74.9428 376.1 75.2624C375.874 75.5434 375.131 75.7734 374.449 75.7734C373.59 75.7734 373.029 75.5093 372.627 74.9159Z" fill="black"/>
</svg>
